<?xml version="1.0" standalone="no"?>
<!DOCTYPE svg PUBLIC "-//W3C//DTD SVG 20010904//EN"
 "http://www.w3.org/TR/2001/REC-SVG-20010904/DTD/svg10.dtd">
<svg version="1.0" xmlns="http://www.w3.org/2000/svg"
 width="200.000000pt" height="200.000000pt" viewBox="0 0 200.000000 200.000000"
 preserveAspectRatio="xMidYMid meet">

<g transform="translate(0.000000,200.000000) scale(0.100000,-0.100000)"
fill="#000000" stroke="none">
<path d="M0 1790 c0 -119 4 -210 9 -210 5 0 34 -20 64 -45 68 -55 92 -113 81
-197 -8 -56 -27 -113 -43 -123 -6 -3 -8 -12 -5 -19 7 -19 -14 -178 -26 -190
-5 -5 -10 -16 -10 -24 0 -23 -40 -103 -55 -109 -13 -4 -15 -69 -15 -439 l0
-434 533 0 c366 1 527 4 515 11 -10 5 -18 18 -18 28 0 12 -18 25 -55 41 -43
18 -54 27 -50 41 6 19 -19 49 -41 49 -11 0 -10 6 6 28 11 15 25 54 30 86 5 32
12 61 16 65 3 3 19 -11 36 -31 16 -21 34 -38 39 -38 17 0 9 47 -11 65 -20 19
-20 19 27 37 58 22 53 21 53 3 0 -22 56 -81 90 -95 25 -11 34 -9 64 9 68 42
88 108 101 326 3 55 8 132 11 170 3 39 3 67 -1 64 -12 -13 -34 -126 -28 -147
3 -12 -2 -33 -11 -47 -9 -13 -16 -31 -16 -40 0 -8 -6 -15 -13 -15 -8 0 -19
-12 -26 -26 -8 -18 -18 -25 -34 -23 -12 2 -28 -1 -36 -6 -10 -6 -19 -2 -29 13
-8 12 -21 22 -28 22 -26 0 -14 42 20 75 l34 32 -35 17 -35 17 5 70 c4 47 11
77 23 90 9 10 15 22 11 25 -3 3 -2 17 3 30 5 13 6 24 2 24 -4 0 -9 15 -10 34
-2 27 5 41 41 77 24 25 48 52 53 62 9 15 15 16 37 8 36 -14 45 -37 61 -156
l14 -100 -5 150 c-5 160 7 339 28 418 10 36 10 56 2 78 -7 19 -8 31 -1 35 5 3
7 16 3 28 -10 35 -14 56 -10 56 1 0 45 -39 96 -86 167 -153 268 -206 400 -208
l77 -1 31 -45 31 -44 0 362 0 362 -240 0 c-185 0 -240 -3 -240 -12 0 -62 258
-341 375 -407 56 -32 85 -56 85 -72 0 -26 -176 20 -195 51 -3 5 -15 10 -26 10
-11 0 -36 11 -57 23 -20 13 -55 32 -76 42 -22 10 -46 31 -55 46 -8 15 -27 30
-41 33 -23 4 -82 50 -151 116 -15 14 -31 24 -36 23 -6 -2 -8 13 -6 37 3 32 1
40 -12 40 -9 0 -26 11 -39 25 -19 20 -25 22 -29 11 -4 -11 -18 -13 -54 -10
-26 3 -61 5 -77 4 -16 0 -33 5 -37 12 -6 9 -11 9 -24 -2 -13 -11 -18 -11 -24
-1 -4 6 -12 11 -17 10 -23 -4 -45 2 -39 11 4 7 -65 10 -198 10 l-205 0 -4 -24
c-3 -14 0 -30 5 -35 8 -8 4 -18 -11 -34 l-22 -23 20 -39 c22 -44 25 -62 10
-67 -6 -2 -13 -36 -17 -76 -5 -63 -4 -72 11 -72 22 0 31 -26 16 -45 -24 -29 2
-37 30 -10 22 21 35 26 54 21 31 -8 34 -26 6 -33 -11 -3 -20 -11 -20 -19 0
-19 -22 -64 -31 -64 -5 0 -15 12 -22 26 l-14 27 -7 -26 c-7 -31 -70 -97 -91
-97 -18 0 -19 12 -3 28 9 9 -2 12 -50 12 -34 0 -72 6 -84 13 -57 32 -84 70
-58 79 7 2 5 16 -6 36 -11 23 -13 41 -8 60 4 15 8 36 8 47 1 15 9 21 34 23 17
2 32 6 32 9 0 9 -42 43 -52 43 -5 0 -8 6 -5 13 2 6 0 22 -4 34 -5 13 -4 44 0
70 6 31 5 52 -2 64 -9 14 -8 22 1 31 6 6 12 16 12 20 0 4 -70 8 -155 8 l-155
0 0 -210z m1011 -31 c154 -83 198 -109 152 -92 -11 4 -14 3 -9 -6 5 -7 16 -9
28 -5 11 3 23 2 27 -2 3 -5 23 -18 44 -28 22 -12 37 -26 35 -34 -4 -20 -28
-28 -28 -9 0 10 -11 14 -40 12 -22 -1 -40 2 -40 6 0 5 -8 9 -17 9 -13 0 -14
-3 -5 -12 17 -17 15 -33 -3 -18 -8 7 -15 9 -15 5 0 -4 -6 -2 -13 4 -8 6 -17 8
-20 4 -4 -3 -7 -2 -7 4 0 15 -46 33 -59 22 -8 -6 -8 -5 -1 3 12 15 13 31 1 24
-9 -6 -67 20 -76 34 -9 14 25 20 48 9 15 -7 12 -2 -8 15 -16 14 -34 25 -40 25
-5 0 -4 -3 3 -6 15 -6 16 -23 0 -23 -6 0 -20 -7 -30 -17 -10 -9 -18 -11 -18
-5 0 6 6 13 13 15 6 3 -1 6 -17 6 -16 1 -37 10 -47 23 -23 26 -24 34 -1 48 12
8 12 10 2 7 -20 -6 -54 18 -45 32 3 6 -1 11 -10 11 -9 0 -14 -4 -11 -9 3 -5
-1 -12 -10 -15 -13 -5 -15 -2 -11 14 4 14 0 20 -11 20 -15 0 -15 2 -2 11 11 8
7 9 -19 6 -33 -4 -33 -4 -11 13 30 23 59 12 271 -101z m-236 -214 c22 -10 41
-20 43 -21 2 -1 -1 -11 -7 -22 -8 -15 -7 -23 5 -33 8 -7 14 -8 13 -3 -5 26 1
36 15 25 8 -7 12 -21 9 -31 -3 -11 0 -20 6 -20 6 0 10 5 9 12 -2 6 6 13 17 15
16 3 17 2 5 -6 -8 -5 -12 -12 -9 -15 3 -3 14 0 24 8 18 13 17 14 -11 29 -34
19 -27 22 11 5 29 -13 32 -26 8 -44 -15 -11 -16 -15 -4 -26 8 -7 11 -8 8 -2
-4 7 0 14 8 17 10 4 12 1 8 -11 -6 -15 -5 -15 14 1 19 17 22 17 69 -7 27 -14
62 -30 78 -36 l29 -11 -32 -23 c-28 -21 -36 -22 -71 -14 -31 8 -44 7 -56 -3
-15 -12 -16 -11 -9 11 7 22 6 23 -9 11 -14 -12 -16 -11 -16 3 0 9 -4 16 -10
16 -5 0 -10 -4 -10 -10 0 -5 -5 -10 -11 -10 -6 0 -8 9 -4 23 6 21 6 21 -9 3
-16 -19 -16 -19 -16 3 l0 23 -21 -23 c-11 -13 -18 -19 -15 -12 4 6 2 14 -4 18
-7 4 -6 13 1 27 8 15 8 19 0 14 -6 -4 -18 -21 -27 -38 -21 -40 -37 -24 -23 25
17 63 -8 78 -41 25 -11 -18 -20 -28 -21 -23 -3 22 3 51 13 63 6 6 7 12 3 12
-4 0 -14 -8 -22 -17 -12 -16 -13 -15 -7 10 8 37 -10 35 -26 -3 -14 -35 -35
-41 -25 -7 16 50 56 101 75 92 3 -1 23 -10 45 -20z m5 -98 c0 -7 -7 -22 -15
-33 -12 -16 -14 -17 -15 -2 0 23 11 48 21 48 5 0 9 -6 9 -13z m-355 -88 c-32
-47 -40 -72 -35 -108 3 -23 -18 -28 -66 -16 -51 13 -66 29 -57 63 4 16 -2 34
-17 54 -22 30 -22 32 -5 45 13 9 51 13 117 13 l98 0 -35 -51z m255 -4 c37 -19
37 -23 0 -36 -16 -6 -30 -18 -30 -26 0 -13 3 -13 15 -3 8 7 15 10 15 6 0 -4
11 1 24 9 23 15 27 15 65 -7 38 -21 58 -47 28 -35 -8 3 -14 -1 -14 -8 0 -7 5
-11 11 -9 6 2 12 -10 13 -31 1 -19 -1 -35 -5 -35 -14 1 -42 27 -42 39 0 7 -4
10 -9 6 -5 -3 -21 0 -35 6 -20 10 -29 9 -43 -2 -16 -13 -17 -12 -5 3 11 14 10
19 -9 32 -27 18 -43 11 -36 -16 5 -16 3 -17 -9 -7 -10 8 -12 15 -4 23 14 14
12 26 -5 26 -8 0 -14 -5 -12 -11 1 -6 -4 -14 -11 -16 -8 -3 -10 1 -5 13 4 12
3 15 -6 10 -8 -5 -11 2 -9 23 1 17 4 28 6 26 3 -2 16 5 30 15 30 24 44 25 82
5z m450 -37 c-53 -27 -77 -11 -29 20 25 16 38 18 52 10 17 -9 14 -12 -23 -30z
m-229 -103 c86 -53 100 -65 76 -65 -10 0 -20 7 -23 15 -4 8 -13 15 -21 15 -9
0 -22 8 -30 18 -8 9 -12 12 -9 6 3 -6 -3 -19 -14 -29 -11 -10 -17 -22 -14 -26
6 -11 -10 -12 -20 -2 -3 4 -15 7 -26 8 -18 2 -19 0 -5 -15 8 -9 13 -19 11 -21
-9 -9 50 -7 66 2 11 6 18 6 18 1 0 -11 -34 -22 -65 -22 -11 0 -28 9 -38 20
-10 12 -23 18 -30 15 -6 -4 3 7 22 24 29 25 32 33 21 46 -10 12 -10 15 1 15 9
0 10 3 4 8 -13 9 -17 32 -6 32 5 0 42 -20 82 -45z m-181 -7 c0 -6 -6 -5 -15 2
-8 7 -15 14 -15 16 0 2 7 1 15 -2 8 -4 15 -11 15 -16z m-427 -10 c16 -8 16
-12 -13 -51 -16 -22 -30 -47 -30 -54 0 -7 -10 -13 -23 -13 -29 0 -113 -55
-128 -82 -6 -12 -9 -37 -5 -57 4 -25 2 -31 -4 -21 -17 26 -11 66 15 104 14 20
25 40 25 44 0 8 45 95 67 130 12 19 20 22 46 16 18 -3 40 -11 50 -16z m441
-13 c-10 -15 -25 -25 -38 -24 -20 1 -20 2 -1 6 11 3 26 14 33 24 20 28 25 23
6 -6z m41 -5 c3 -5 2 -10 -4 -10 -5 0 -13 5 -16 10 -3 6 -2 10 4 10 5 0 13 -4
16 -10z m125 -14 c0 -3 -4 -8 -10 -11 -5 -3 -10 -1 -10 4 0 6 5 11 10 11 6 0
10 -2 10 -4z m45 -66 c3 -5 1 -10 -4 -10 -6 0 -11 5 -11 10 0 6 2 10 4 10 3 0
8 -4 11 -10z m-309 -40 c8 0 11 -6 8 -15 -4 -8 -1 -15 5 -15 6 0 11 -5 11 -11
0 -6 -6 -9 -14 -6 -8 3 -20 -1 -26 -9 -14 -16 -30 -19 -30 -4 0 6 7 10 16 10
14 0 14 3 4 15 -10 12 -9 15 6 15 16 1 15 3 -6 16 -14 8 -17 13 -7 10 10 -3
25 -6 33 -6z m91 -77 c4 -10 16 -26 28 -35 11 -10 16 -17 12 -18 -4 0 -17 9
-29 20 -22 20 -44 27 -34 11 4 -5 0 -12 -6 -14 -7 -3 -3 -6 9 -6 26 -1 39 -19
25 -33 -12 -12 -70 22 -65 39 2 6 -5 14 -16 18 -12 3 -21 11 -21 16 0 6 3 8 8
6 4 -3 16 -1 27 4 33 13 55 10 62 -8z m-119 -15 c-2 -8 6 -13 19 -12 14 1 20
-3 16 -12 -6 -17 -8 -17 -44 1 -16 9 -27 20 -24 25 9 14 35 12 33 -2z m-234
-126 c2 -4 -5 -9 -17 -9 -17 -2 -19 0 -7 7 18 12 18 12 24 2z m562 -142 c2
-86 -12 -141 -37 -147 -11 -3 -16 -10 -12 -16 21 -33 -4 -104 -32 -93 -8 3
-17 0 -21 -6 -4 -7 -9 -6 -15 3 -7 12 -9 11 -9 0 0 -11 -6 -9 -20 7 -21 22
-28 72 -9 72 5 0 7 5 4 10 -4 7 3 8 20 4 21 -5 27 -4 23 7 -3 8 -14 15 -26 17
-12 2 -20 7 -17 12 3 5 1 11 -5 15 -12 7 -14 26 -2 24 23 -4 34 3 28 17 -4 10
3 23 19 36 14 11 23 23 20 28 -3 4 2 10 10 14 8 3 15 12 15 20 0 21 30 48 49
44 13 -3 16 -17 17 -68z m135 -96 c-1 -21 -4 -40 -4 -41 -5 -4 -94 23 -95 30
-7 27 2 37 41 45 58 13 62 11 58 -34z m139 -80 c12 -31 12 -37 1 -30 -5 4 -11
2 -13 -3 -1 -5 -12 -11 -23 -13 -16 -2 -19 2 -18 20 3 23 22 51 36 52 4 0 12
-12 17 -26z m-416 -160 c4 -9 4 -19 2 -21 -8 -8 -26 8 -26 23 0 19 16 18 24
-2z"/>
<path d="M1040 1710 c0 -5 5 -10 10 -10 6 0 10 5 10 10 0 6 -4 10 -10 10 -5 0
-10 -4 -10 -10z"/>
<path d="M1074 1688 c-4 -6 -3 -8 4 -4 5 3 12 1 14 -6 3 -8 7 -6 11 5 7 20
-17 24 -29 5z"/>
<path d="M1115 1681 c-3 -5 -1 -12 5 -16 5 -3 10 1 10 9 0 18 -6 21 -15 7z"/>
<path d="M1079 1657 c14 -8 27 -21 30 -29 4 -10 14 -12 31 -8 l25 6 -30 16
c-16 8 -41 18 -55 22 l-25 7 24 -14z"/>
<path d="M955 1410 c-10 -11 -15 -20 -11 -20 11 0 39 30 34 36 -3 2 -13 -5
-23 -16z"/>
<path d="M860 1210 c0 -6 -4 -8 -10 -5 -5 3 -10 -1 -10 -11 0 -14 2 -15 18 -3
9 7 18 14 20 15 2 1 -1 5 -7 9 -6 3 -11 1 -11 -5z"/>
<path d="M1390 1502 c0 -12 4 -22 9 -22 10 0 9 26 -2 36 -4 4 -7 -2 -7 -14z"/>
<path d="M1973 1228 c-13 -13 -23 -31 -23 -40 0 -9 -16 -30 -35 -47 -23 -20
-35 -39 -35 -56 0 -31 -23 -77 -59 -122 -54 -67 -71 -92 -71 -105 -1 -17 -40
-63 -66 -76 -12 -6 -24 -25 -28 -42 -4 -20 -16 -37 -36 -48 -20 -11 -34 -30
-42 -54 -6 -21 -19 -45 -30 -54 -10 -10 -18 -22 -18 -28 0 -6 -21 -34 -46 -61
-26 -28 -53 -65 -61 -83 -9 -21 -25 -37 -43 -44 -17 -5 -31 -15 -31 -21 -3
-33 -20 -77 -29 -77 -4 0 -19 -18 -34 -40 -21 -31 -36 -42 -72 -51 l-45 -12
21 -22 c21 -22 21 -65 0 -65 -4 0 -10 -9 -13 -20 -5 -20 -11 -24 -59 -34 -52
-12 -29 -26 40 -25 l67 0 85 132 c85 132 240 358 309 452 100 135 264 359 320
437 l62 86 -3 72 -3 72 -22 -24z"/>
<path d="M1972 620 c-12 -12 -19 -27 -15 -35 3 -10 0 -15 -8 -13 -7 2 -24 -18
-38 -44 -23 -42 -24 -49 -11 -72 12 -24 11 -28 -9 -50 -13 -14 -20 -29 -17
-34 9 -14 -17 -32 -33 -23 -10 7 -10 14 3 39 9 17 16 34 16 38 0 11 -84 -87
-92 -108 -4 -10 -12 -18 -17 -18 -13 0 -45 -62 -62 -120 -15 -52 -38 -90 -88
-142 l-35 -38 217 0 217 0 0 320 c0 176 -1 320 -3 320 -2 0 -13 -9 -25 -20z"/>
</g>
</svg>
